<svg width="608" height="1200" viewBox="0 0 608 1200" fill="none" xmlns="http://www.w3.org/2000/svg">
<g opacity="0.24" clip-path="url(#clip0_1_11110)">
<g opacity="0.7">
<mask id="mask0_1_11110" style="mask-type:alpha" maskUnits="userSpaceOnUse" x="0" y="0" width="1200" height="1200">
<rect width="1200" height="1200" fill="url(#paint0_radial_1_11110)"/>
</mask>
<g mask="url(#mask0_1_11110)">
<path d="M-62.6521 37.9189L3.23782 1.1452L69.1277 37.9189V111.408L3.23782 148.182L-62.6521 111.408V37.9189Z" stroke="white" stroke-width="2"/>
<path d="M69.9045 37.9189L135.794 1.1452L201.684 37.9189V111.408L135.794 148.182L69.9045 111.408V37.9189Z" stroke="white" stroke-width="2"/>
<path d="M202.462 37.9189L268.352 1.1452L334.242 37.9189V111.408L268.352 148.182L202.462 111.408V37.9189Z" stroke="white" stroke-width="2"/>
<path d="M335.019 37.9189L400.909 1.1452L466.799 37.9189V111.408L400.909 148.182L335.019 111.408V37.9189Z" stroke="white" stroke-width="2"/>
<path d="M467.575 37.9189L533.465 1.1452L599.355 37.9189V111.408L533.465 148.182L467.575 111.408V37.9189Z" stroke="white" stroke-width="2"/>
<path d="M600.132 37.9189L666.022 1.1452L731.912 37.9189V111.408L666.022 148.182L600.132 111.408V37.9189Z" stroke="white" stroke-width="2"/>
<path d="M-129.652 146.919L-63.7622 110.145L2.12775 146.919V220.408L-63.7622 257.182L-129.652 220.408V146.919Z" stroke="white" stroke-width="2"/>
<path d="M2.90455 146.919L68.7945 110.145L134.684 146.919V220.408L68.7945 257.182L2.90455 220.408V146.919Z" stroke="white" stroke-width="2"/>
<path d="M135.462 146.919L201.352 110.145L267.242 146.919V220.408L201.352 257.182L135.462 220.408V146.919Z" stroke="white" stroke-width="2"/>
<path d="M268.019 146.919L333.909 110.145L399.799 146.919V220.408L333.909 257.182L268.019 220.408V146.919Z" stroke="white" stroke-width="2"/>
<path d="M400.575 146.919L466.465 110.145L532.355 146.919V220.408L466.465 257.182L400.575 220.408V146.919Z" stroke="white" stroke-width="2"/>
<path d="M533.132 146.919L599.022 110.145L664.912 146.919V220.408L599.022 257.182L533.132 220.408V146.919Z" stroke="white" stroke-width="2"/>
<path d="M-64.0955 255.919L1.79446 219.145L67.6844 255.919V329.408L1.79446 366.182L-64.0955 329.408V255.919Z" stroke="white" stroke-width="2"/>
<path d="M68.4622 255.919L134.352 219.145L200.242 255.919V329.408L134.352 366.182L68.4622 329.408V255.919Z" stroke="white" stroke-width="2"/>
<path d="M201.019 255.919L266.909 219.145L332.799 255.919V329.408L266.909 366.182L201.019 329.408V255.919Z" stroke="white" stroke-width="2"/>
<path d="M333.575 255.919L399.465 219.145L465.355 255.919V329.408L399.465 366.182L333.575 329.408V255.919Z" stroke="white" stroke-width="2"/>
<path d="M466.132 255.919L532.022 219.145L597.912 255.919V329.408L532.022 366.182L466.132 329.408V255.919Z" stroke="white" stroke-width="2"/>
<path d="M598.689 255.919L664.579 219.145L730.469 255.919V329.408L664.579 366.182L598.689 329.408V255.919Z" stroke="white" stroke-width="2"/>
<path d="M-131.095 364.919L-65.2055 328.145L0.684387 364.919V438.408L-65.2055 475.182L-131.095 438.408V364.919Z" stroke="white" stroke-width="2"/>
<path d="M1.46217 364.919L67.3521 328.145L133.242 364.919V438.408L67.3521 475.182L1.46217 438.408V364.919Z" stroke="white" stroke-width="2"/>
<path d="M134.019 364.919L199.909 328.145L265.799 364.919V438.408L199.909 475.182L134.019 438.408V364.919Z" stroke="white" stroke-width="2"/>
<path d="M266.575 364.919L332.465 328.145L398.355 364.919V438.408L332.465 475.182L266.575 438.408V364.919Z" stroke="white" stroke-width="2"/>
<path d="M399.132 364.919L465.022 328.145L530.912 364.919V438.408L465.022 475.182L399.132 438.408V364.919Z" stroke="white" stroke-width="2"/>
<path d="M531.689 364.919L597.579 328.145L663.469 364.919V438.408L597.579 475.182L531.689 438.408V364.919Z" stroke="white" stroke-width="2"/>
<path d="M-65.5378 473.919L0.352081 437.145L66.242 473.919V547.408L0.352081 584.182L-65.5378 547.408V473.919Z" stroke="white" stroke-width="2"/>
<path d="M67.0188 473.919L132.909 437.145L198.799 473.919V547.408L132.909 584.182L67.0188 547.408V473.919Z" stroke="white" stroke-width="2"/>
<path d="M199.575 473.919L265.465 437.145L331.355 473.919V547.408L265.465 584.182L199.575 547.408V473.919Z" stroke="white" stroke-width="2"/>
<path d="M332.132 473.919L398.022 437.145L463.912 473.919V547.408L398.022 584.182L332.132 547.408V473.919Z" stroke="white" stroke-width="2"/>
<path d="M464.689 473.919L530.579 437.145L596.469 473.919V547.408L530.579 584.182L464.689 547.408V473.919Z" stroke="white" stroke-width="2"/>
<path d="M597.245 473.919L663.135 437.145L729.025 473.919V547.408L663.135 584.182L597.245 547.408V473.919Z" stroke="white" stroke-width="2"/>
<path d="M-132.538 582.919L-66.6479 546.145L-0.757996 582.919V656.408L-66.6479 693.182L-132.538 656.408V582.919Z" stroke="white" stroke-width="2"/>
<path d="M0.0188065 582.919L65.9087 546.145L131.799 582.919V656.408L65.9087 693.182L0.0188065 656.408V582.919Z" stroke="white" stroke-width="2"/>
<path d="M132.575 582.919L198.465 546.145L264.355 582.919V656.408L198.465 693.182L132.575 656.408V582.919Z" stroke="white" stroke-width="2"/>
<path d="M265.132 582.919L331.022 546.145L396.912 582.919V656.408L331.022 693.182L265.132 656.408V582.919Z" stroke="white" stroke-width="2"/>
<path d="M397.689 582.919L463.579 546.145L529.469 582.919V656.408L463.579 693.182L397.689 656.408V582.919Z" stroke="white" stroke-width="2"/>
<path d="M530.245 582.919L596.135 546.145L662.025 582.919V656.408L596.135 693.182L530.245 656.408V582.919Z" stroke="white" stroke-width="2"/>
<path d="M-66.9812 691.919L-1.09128 655.145L64.7986 691.919V765.408L-1.09128 802.182L-66.9812 765.408V691.919Z" stroke="white" stroke-width="2"/>
<path d="M65.5754 691.919L131.465 655.145L197.355 691.919V765.408L131.465 802.182L65.5754 765.408V691.919Z" stroke="white" stroke-width="2"/>
<path d="M198.132 691.919L264.022 655.145L329.912 691.919V765.408L264.022 802.182L198.132 765.408V691.919Z" stroke="white" stroke-width="2"/>
<path d="M330.689 691.919L396.579 655.145L462.469 691.919V765.408L396.579 802.182L330.689 765.408V691.919Z" stroke="white" stroke-width="2"/>
<path d="M463.245 691.919L529.135 655.145L595.025 691.919V765.408L529.135 802.182L463.245 765.408V691.919Z" stroke="white" stroke-width="2"/>
<path d="M595.803 691.919L661.693 655.145L727.583 691.919V765.408L661.693 802.182L595.803 765.408V691.919Z" stroke="white" stroke-width="2"/>
<path d="M-1.42455 800.919L64.4654 764.145L130.355 800.919V874.408L64.4654 911.182L-1.42455 874.408V800.919Z" stroke="white" stroke-width="2"/>
<path d="M131.132 800.919L197.022 764.145L262.912 800.919V874.408L197.022 911.182L131.132 874.408V800.919Z" stroke="white" stroke-width="2"/>
<path d="M263.689 800.919L329.579 764.145L395.469 800.919V874.408L329.579 911.182L263.689 874.408V800.919Z" stroke="white" stroke-width="2"/>
<path d="M396.245 800.919L462.135 764.145L528.025 800.919V874.408L462.135 911.182L396.245 874.408V800.919Z" stroke="white" stroke-width="2"/>
<path d="M528.803 800.919L594.693 764.145L660.583 800.919V874.408L594.693 911.182L528.803 874.408V800.919Z" stroke="white" stroke-width="2"/>
<path d="M-68.4246 909.919L-2.53464 873.145L63.3553 909.919V983.408L-2.53464 1020.18L-68.4246 983.408V909.919Z" stroke="white" stroke-width="2"/>
<path d="M64.1321 909.919L130.022 873.145L195.912 909.919V983.408L130.022 1020.18L64.1321 983.408V909.919Z" stroke="white" stroke-width="2"/>
<path d="M196.689 909.919L262.579 873.145L328.469 909.919V983.408L262.579 1020.18L196.689 983.408V909.919Z" stroke="white" stroke-width="2"/>
<path d="M329.245 909.919L395.135 873.145L461.025 909.919V983.408L395.135 1020.18L329.245 983.408V909.919Z" stroke="white" stroke-width="2"/>
<path d="M461.803 909.919L527.693 873.145L593.583 909.919V983.408L527.693 1020.18L461.803 983.408V909.919Z" stroke="white" stroke-width="2"/>
<path d="M594.36 909.919L660.25 873.145L726.139 909.919V983.408L660.25 1020.18L594.36 983.408V909.919Z" stroke="white" stroke-width="2"/>
<path d="M-2.86791 1018.92L63.022 982.145L128.912 1018.92V1092.41L63.022 1129.18L-2.86791 1092.41V1018.92Z" stroke="white" stroke-width="2"/>
<path d="M129.689 1018.92L195.579 982.145L261.469 1018.92V1092.41L195.579 1129.18L129.689 1092.41V1018.92Z" stroke="white" stroke-width="2"/>
<path d="M262.245 1018.92L328.135 982.145L394.025 1018.92V1092.41L328.135 1129.18L262.245 1092.41V1018.92Z" stroke="white" stroke-width="2"/>
<path d="M394.803 1018.92L460.693 982.145L526.583 1018.92V1092.41L460.693 1129.18L394.803 1092.41V1018.92Z" stroke="white" stroke-width="2"/>
<path d="M527.36 1018.92L593.25 982.145L659.139 1018.92V1092.41L593.25 1129.18L527.36 1092.41V1018.92Z" stroke="white" stroke-width="2"/>
<path d="M-69.8679 1127.92L-3.978 1091.15L61.9119 1127.92V1201.41L-3.978 1238.18L-69.8679 1201.41V1127.92Z" stroke="white" stroke-width="2"/>
<path d="M62.6887 1127.92L128.579 1091.15L194.469 1127.92V1201.41L128.579 1238.18L62.6887 1201.41V1127.92Z" stroke="white" stroke-width="2"/>
<path d="M195.245 1127.92L261.135 1091.15L327.025 1127.92V1201.41L261.135 1238.18L195.245 1201.41V1127.92Z" stroke="white" stroke-width="2"/>
<path d="M327.803 1127.92L393.693 1091.15L459.583 1127.92V1201.41L393.693 1238.18L327.803 1201.41V1127.92Z" stroke="white" stroke-width="2"/>
<path d="M460.36 1127.92L526.25 1091.15L592.139 1127.92V1201.41L526.25 1238.18L460.36 1201.41V1127.92Z" stroke="white" stroke-width="2"/>
<path d="M593.348 1128.92L659.238 1092.15L725.128 1128.92V1202.41L659.238 1239.18L593.348 1202.41V1128.92Z" stroke="white" stroke-width="2"/>
</g>
</g>
</g>
<defs>
<radialGradient id="paint0_radial_1_11110" cx="0" cy="0" r="1" gradientUnits="userSpaceOnUse" gradientTransform="translate(600 600) rotate(90) scale(671)">
<stop/>
<stop offset="1" stop-opacity="0"/>
</radialGradient>
<clipPath id="clip0_1_11110">
<rect width="1200" height="1200" fill="white"/>
</clipPath>
</defs>
</svg>
