<svg width="16" height="20" viewBox="0 0 16 20" fill="none" xmlns="http://www.w3.org/2000/svg">
<path d="M10.99 12.9473L8.02921 9.99981L1.57754 16.8165C0.918373 17.5248 1.70504 18.6331 2.60921 18.2581L10.6225 14.8448C10.7982 14.7702 10.9528 14.6535 11.0729 14.5051C11.1929 14.3567 11.2746 14.181 11.3108 13.9936C11.347 13.8062 11.3366 13.6128 11.2805 13.4303C11.2245 13.2479 11.1244 13.082 10.9892 12.9473H10.99Z" stroke="#63C796" stroke-width="1.5" stroke-linecap="round" stroke-linejoin="round"/>
<path d="M5.01001 7.05314L7.97084 9.9998L14.4225 3.18314C15.0817 2.4748 14.295 1.36647 13.3908 1.74147L5.3775 5.15647C5.20184 5.23112 5.0472 5.34778 4.92719 5.4962C4.80719 5.64462 4.72548 5.82025 4.68927 6.00766C4.65306 6.19506 4.66345 6.38849 4.71952 6.57093C4.77559 6.75338 4.87563 6.91925 5.01084 7.05397L5.01001 7.05314Z" stroke="#63C796" stroke-width="1.5" stroke-linecap="round" stroke-linejoin="round"/>
</svg>
